<?xml version="1.0" encoding="utf-8"?>
<!-- Generator: Adobe Illustrator 24.1.1, SVG Export Plug-In . SVG Version: 6.00 Build 0)  -->
<svg version="1.1" id="Layer_1" xmlns="http://www.w3.org/2000/svg" xmlns:xlink="http://www.w3.org/1999/xlink" x="0px" y="0px"
	 viewBox="0 0 221.06 48.5" style="enable-background:new 0 0 221.06 48.5;" xml:space="preserve">
<style type="text/css">
	.st0{fill:#939598;}
	.st1{fill:#58595B;}
	.st2{fill:#2B7F95;}
	.st3{fill:#508296;}
	.st4{fill:#123156;}
	.st5{fill:#133358;}
</style>
<g>
	<rect x="169.83" y="1.13" class="st0" width="0.33" height="45.02"/>
	<g>
		<g>
			<path class="st1" d="M65.9,38.58c-0.45,0-0.79-0.33-0.79-0.76c0-0.42,0.34-0.75,0.79-0.75c0.44,0,0.78,0.33,0.78,0.75
				C66.68,38.25,66.34,38.58,65.9,38.58"/>
			<path class="st1" d="M71.11,45.18h-4.67c-1.35,0-2.09-0.22-2.74-0.8c-0.64-0.58-0.87-1.55-0.87-2.2V39.7h1.23v2.34
				c0,0.68,0.19,1.17,0.55,1.46c0.36,0.3,0.94,0.45,1.67,0.45h3.6v-5.34h1.24v6.57H71.11z"/>
			<path class="st1" d="M68.12,38.58c-0.44,0-0.78-0.33-0.78-0.76c0-0.42,0.35-0.75,0.78-0.75c0.45,0,0.8,0.33,0.8,0.75
				C68.92,38.25,68.58,38.58,68.12,38.58"/>
			<rect x="73.22" y="35.53" class="st1" width="1.22" height="9.66"/>
			<path class="st1" d="M76.42,47.72c-0.26,0-0.52-0.04-0.79-0.11l-0.15-0.04l0.32-1.18l0.14,0.04c0.21,0.06,0.29,0.06,0.43,0.06
				c0.54,0,0.73-0.19,0.73-1.27v-6.61h1.23v6.61C78.34,46.3,78.14,47.72,76.42,47.72"/>
			<path class="st1" d="M98.61,47.6c-0.46,0-0.79-0.32-0.79-0.75s0.35-0.76,0.79-0.76s0.78,0.33,0.78,0.76
				C99.39,47.28,99.06,47.6,98.61,47.6"/>
			<path class="st1" d="M100.83,47.6c-0.46,0-0.78-0.32-0.78-0.75s0.34-0.76,0.78-0.76c0.45,0,0.79,0.33,0.79,0.76
				C101.63,47.28,101.3,47.6,100.83,47.6"/>
			<path class="st1" d="M112.09,45.3c-0.99,0-1.79-0.37-2.29-1.07c-0.49,0.61-1.22,0.95-2.04,0.95H80.47v-9.66h1.22v8.43h17.5v-5.34
				h1.22v5.34h4.48V39.2h1.22v4.76h1.64c0.42,0,1.41-0.14,1.41-1.42V39.2h1.22v3.35c0.03,0.93,0.73,1.53,1.7,1.53
				c1,0,1.57-0.58,1.57-1.6v-4.51h1.22v4.36c0,0.35-0.03,0.65-0.08,0.9c0.33,0.49,0.89,0.74,1.85,0.74H118v-8.43h1.22v8.43h2.94
				v-8.43h1.22v9.66l-7.13-0.02c-0.87-0.07-1.46-0.36-1.86-0.9C113.94,44.95,113.16,45.3,112.09,45.3"/>
		</g>
		<g>
			<path class="st1" d="M92.15,16.43h-1.48v13.55h2.14V17.09C92.81,16.74,92.54,16.43,92.15,16.43"/>
			<path class="st1" d="M55.66,18.12h-2.17v1.6h2.17C55.66,19.72,55.66,18.42,55.66,18.12"/>
			<rect x="110.15" y="31.22" class="st1" width="2.17" height="1.6"/>
			<path class="st1" d="M32.74,32.82h2.17c0,0,0-1.3,0-1.6h-2.17C32.74,31.22,32.74,32.82,32.74,32.82z"/>
			<path class="st1" d="M12.45,32.82h2.17c0,0,0-1.3,0-1.6h-2.17V32.82z"/>
			<path class="st1" d="M15.42,32.82h2.17c0,0,0-1.3,0-1.6h-2.17V32.82z"/>
			<path class="st1" d="M60.2,32.82h2.17c0,0,0-1.3,0-1.6H60.2V32.82z"/>
			<path class="st1" d="M63.16,32.82h2.16c0,0,0-1.3,0-1.6h-2.17L63.16,32.82L63.16,32.82z"/>
			<path class="st1" d="M120.97,28.23L120.97,28.23c-1.79,0-2.89-1-2.89-2.72s1.12-2.79,2.91-2.79c0.78,0,1.34,0.16,2.03,0.61V21.5
				c-0.83-0.36-1.47-0.51-2.33-0.51c-2.86,0-4.81,1.92-4.81,4.7c0,1,0.24,1.85,0.68,2.54h-2.52c-1.38,0-1.83-0.45-1.83-1.81v-5.19
				h-2.15v5.19c0,1.36-0.45,1.81-1.83,1.81h-2.85v-2.54c0-2.79-1.95-4.7-4.81-4.7c-0.87,0-1.5,0.14-2.33,0.51v1.84
				c0.69-0.45,1.25-0.61,2.03-0.61c1.79,0,2.91,1.07,2.91,2.79v2.72h-5.65v1.86h10.88c1.22,0,2.11-0.21,2.72-0.63
				c0.61,0.42,1.5,0.63,2.72,0.63h9.88v-1.86L120.97,28.23L120.97,28.23z"/>
		</g>
		<g>
			<path class="st1" d="M71.69,22.73c1.79,0,2.91,1.07,2.91,2.79v2.72h-4.94v-4.89C70.35,22.89,70.91,22.73,71.69,22.73
				 M55.77,22.86v5.3c-0.43,0.16-3.9,0.82-3.9-2.62C51.87,22.06,55.28,22.76,55.77,22.86 M86.97,16.43H85.5v11.79h-3.3V17.09
				c0-0.35-0.28-0.66-0.67-0.66h-1.48v11.79H76.8v-2.54c0-2.79-1.95-4.7-4.81-4.7c-0.87,0-1.5,0.14-2.33,0.51v-4.4
				c0-0.35-0.28-0.66-0.67-0.66h-1.48v11.79h-1.95c-1.38,0-1.83-0.45-1.83-1.81v-5.19h-2.15v5.19c0,1.36-0.45,1.81-1.83,1.81h-1.86
				v-7c-1.09,0-2.01-0.22-3.55-0.22c-2.85,0-4.68,1.68-4.68,4.53c0,1.16,0.26,2.03,0.68,2.69H47.5l0,0c-1.79,0-2.89-0.99-2.89-2.71
				v-4.28H42.4v4.46c0,2.73,1.79,4.39,4.63,4.39h12.92c1.22,0,2.11-0.21,2.72-0.63c0.59,0.4,1.45,0.61,2.61,0.62h22.36V17.09
				C87.64,16.74,87.36,16.43,86.97,16.43"/>
			<path class="st1" d="M22.43,25.54c0-3.48,3.41-2.78,3.9-2.68v2.81h-0.01v0.85c0,0.14,0,0.28,0.01,0.41v1.24
				C25.9,28.32,22.43,28.98,22.43,25.54 M33.19,20.99c-0.87,0-1.5,0.14-2.33,0.51v1.84c0.69-0.45,1.25-0.61,2.03-0.61
				c1.79,0,2.91,1.07,2.91,2.79v2.72h-5.51c-1.29,0-1.76-0.39-1.82-1.56v-5.44c-1.09,0-2.01-0.22-3.55-0.22
				c-2.83,0-4.64,1.65-4.68,4.45h-0.01v0.97c0,1.36-0.45,1.81-1.83,1.81h-0.56c-1.38,0-1.83-0.45-1.83-1.81v-5.19
				c-0.23,0-0.66,0-1.07,0s-0.84,0-1.07,0v5.19c0,1.36-0.45,1.81-1.83,1.81h-0.68c-1.38,0-1.82-0.45-1.82-1.81v-9.33
				c0-0.35-0.28-0.66-0.67-0.66H7.4v14.39c-0.52,0.08-0.93,0.13-1.42,0.13c-1.38,0-1.83-0.45-1.83-1.81v-5.19c-0.54,0-2.15,0-2.15,0
				v5.28c0,1.46,0.21,2.18,0.83,2.76c0.61,0.54,1.57,0.81,2.96,0.81c1.15,0,2.16-0.11,3.75-0.41v-2.5c0.4,0.1,0.86,0.15,1.39,0.17
				v0.01h1.29l0,0c1.22,0,2.11-0.21,2.72-0.62c0.57,0.39,1.38,0.59,2.47,0.62h1.28c1.33-0.01,2.26-0.28,2.85-0.81
				c0.06-0.06,0.11-0.11,0.17-0.17c1.81,1.39,4.8,0.98,6.32,0.69c0.54,0.2,1.22,0.3,2.07,0.3H38v-4.39
				C38,22.91,36.05,20.99,33.19,20.99"/>
		</g>
		<g>
			<path class="st2" d="M139.35,26.59c0.09,0.07,0.18,0.22,0.12,0.39c-0.06,0.18-0.21,0.23-0.32,0.23h-2.12
				c-0.25,0.01-0.42-0.04-0.55-0.13c-0.14-0.1-0.23-0.25-0.31-0.53c0,0-0.6-1.84-0.64-1.97c-0.05-0.15,0.01-0.3,0.11-0.38
				c0.12-0.09,0.29-0.1,0.41-0.02C136.17,24.27,139.35,26.59,139.35,26.59"/>
			<path class="st2" d="M137.68,19.69c-0.09,0.03-0.14,0.09-0.14,0.17s0.04,0.13,0.08,0.15c0.04,0.03,1.03,0.75,1.14,0.82
				s0.22,0.07,0.29,0.05c0.08-0.02,2.49-0.81,2.49-0.81v4.54c0,0-4.81-3.5-5.17-3.76s-0.8-0.47-1.47-0.26
				c-0.71,0.23-2.55,0.83-2.85,0.92c-0.3,0.1-0.43,0.37-0.34,0.66c0.08,0.23,1.92,5.89,2.07,6.38c0.35,1.09,0.95,1.53,2.09,1.53
				c0.29,0,7.04,0,7.04,0c0.1,0,0.19-0.08,0.2-0.17v-1.2c0-0.11-0.09-0.19-0.2-0.19h-6.55c-0.84-0.01-1-0.21-1.19-0.79
				c-0.12-0.39-1.62-5-1.63-5.02c0-0.01,0-0.04,0.02-0.05c0.02-0.01,0.89-0.29,1.35-0.44s0.73,0.05,1.01,0.26
				c0.28,0.2,6.32,4.59,6.55,4.75c0.23,0.17,0.64,0.04,0.64-0.34c0-0.4,0-8.97,0-8.97S137.78,19.65,137.68,19.69"/>
		</g>
		<g>
			<path class="st2" d="M141.72,6.69c-0.11,0-0.27-0.07-0.33-0.24c-0.06-0.18,0.04-0.31,0.13-0.37l1.71-1.24
				c0.2-0.15,0.37-0.22,0.53-0.22c0.17,0,0.33,0.07,0.56,0.24c0,0,1.56,1.14,1.67,1.22c0.12,0.09,0.17,0.25,0.13,0.37
				c-0.04,0.15-0.17,0.25-0.33,0.26C145.65,6.69,141.72,6.69,141.72,6.69"/>
			<path class="st2" d="M147.12,11.3c0.06-0.08,0.06-0.16,0.01-0.22S147.02,11,146.98,11c-0.05,0-1.28,0-1.4,0
				c-0.13,0-0.22,0.07-0.26,0.13c-0.05,0.07-1.54,2.12-1.54,2.12l-2.67-3.67c0,0,5.95,0,6.4,0s0.92-0.09,1.34-0.65
				c0.44-0.6,1.58-2.17,1.77-2.42c0.18-0.25,0.13-0.56-0.11-0.73c-0.2-0.14-5.01-3.64-5.43-3.94c-0.93-0.68-1.67-0.68-2.59-0.01
				c-0.23,0.17-5.7,4.14-5.7,4.14c-0.08,0.06-0.1,0.17-0.06,0.26l0.71,0.97c0.06,0.09,0.19,0.1,0.27,0.04l5.3-3.85
				c0.69-0.49,0.93-0.42,1.42-0.06c0.33,0.24,4.25,3.09,4.26,3.1c0.01,0.01,0.02,0.03,0.01,0.05c-0.01,0.02-0.55,0.76-0.83,1.15
				C147.58,8,147.24,8,146.89,8s-7.81,0-8.09,0s-0.54,0.34-0.31,0.65c0.23,0.32,5.28,7.25,5.28,7.25S147.06,11.38,147.12,11.3"/>
		</g>
		<g>
			<path class="st2" d="M133.3,15.78c-0.03,0.11-0.15,0.24-0.33,0.24c-0.18,0-0.28-0.13-0.32-0.24L132,13.77
				c-0.08-0.24-0.1-0.41-0.05-0.57s0.17-0.29,0.41-0.46c0,0,1.56-1.14,1.67-1.21c0.12-0.09,0.29-0.08,0.39-0.01
				c0.13,0.09,0.19,0.25,0.14,0.39C134.52,12.04,133.3,15.78,133.3,15.78"/>
			<path class="st2" d="M139.35,12.07c-0.06-0.08-0.13-0.1-0.21-0.08c-0.07,0.03-0.11,0.08-0.12,0.12s-0.4,1.21-0.43,1.33
				c-0.04,0.12,0,0.23,0.05,0.29c0.05,0.07,1.54,2.11,1.54,2.11l-4.31,1.41c0,0,1.84-5.66,1.98-6.08s0.2-0.91-0.21-1.48
				c-0.44-0.61-1.57-2.18-1.76-2.43c-0.18-0.25-0.49-0.29-0.73-0.12c-0.2,0.14-5.01,3.65-5.43,3.95c-0.93,0.67-1.16,1.38-0.81,2.46
				c0.09,0.27,2.18,6.7,2.18,6.7c0.03,0.1,0.13,0.15,0.23,0.13l1.15-0.37c0.1-0.03,0.15-0.15,0.12-0.25l-2.03-6.23
				c-0.25-0.8-0.11-1.02,0.38-1.37c0.33-0.24,4.26-3.09,4.27-3.1c0.01-0.01,0.04-0.01,0.05,0.01c0.02,0.02,0.55,0.75,0.83,1.14
				s0.18,0.71,0.07,1.04c-0.11,0.33-2.41,7.43-2.5,7.7s0.16,0.62,0.52,0.5c0.38-0.12,8.53-2.78,8.53-2.78S139.41,12.15,139.35,12.07
				"/>
			<path class="st2" d="M151.49,24.18c0.09-0.07,0.26-0.1,0.41,0c0.15,0.11,0.15,0.27,0.12,0.38l-0.65,2.01
				c-0.07,0.24-0.16,0.39-0.29,0.49c-0.14,0.1-0.31,0.14-0.6,0.13c0,0-1.93,0-2.07,0c-0.15,0-0.28-0.1-0.32-0.22
				c-0.05-0.14-0.01-0.31,0.11-0.4C148.31,26.49,151.49,24.18,151.49,24.18"/>
			<path class="st2" d="M144.42,23.63c0,0.1,0.05,0.16,0.12,0.18c0.07,0.02,0.13,0,0.17-0.02c0.04-0.03,1.03-0.75,1.14-0.82
				c0.1-0.08,0.14-0.18,0.14-0.26s0-2.61,0-2.61l4.32,1.4c0,0-4.81,3.49-5.17,3.76c-0.36,0.26-0.7,0.61-0.7,1.32
				c0,0.75-0.01,2.69,0,3c0,0.31,0.22,0.53,0.52,0.53c0.25,0,6.2,0,6.71,0c1.15,0,1.75-0.43,2.1-1.52c0.09-0.27,2.17-6.7,2.17-6.7
				c0.03-0.1-0.02-0.2-0.1-0.24l-1.15-0.37c-0.1-0.03-0.21,0.03-0.24,0.13l-2.02,6.23c-0.27,0.8-0.51,0.89-1.11,0.89
				c-0.41,0-5.26,0-5.27,0c-0.02,0-0.04-0.01-0.04-0.04s0-0.93,0-1.41s0.28-0.68,0.56-0.88c0.28-0.2,6.32-4.59,6.55-4.76
				s0.24-0.6-0.13-0.71c-0.38-0.12-8.53-2.77-8.53-2.77S144.42,23.53,144.42,23.63"/>
		</g>
		<g>
			<path class="st2" d="M152.96,11.88c-0.03-0.11-0.02-0.28,0.13-0.39c0.15-0.11,0.31-0.06,0.4,0.01l1.71,1.24
				c0.21,0.15,0.32,0.28,0.37,0.43c0.05,0.16,0.03,0.34-0.06,0.61c0,0-0.6,1.84-0.64,1.97c-0.05,0.15-0.18,0.24-0.31,0.24
				c-0.15,0-0.3-0.09-0.34-0.23C154.17,15.62,152.96,11.88,152.96,11.88"/>
			<path class="st2" d="M150.25,18.44c0.09,0.03,0.17,0.01,0.21-0.06c0.04-0.07,0.04-0.13,0.03-0.17s-0.39-1.21-0.43-1.33
				c-0.04-0.12-0.13-0.18-0.21-0.21c-0.08-0.02-2.49-0.81-2.49-0.81l2.67-3.67c0,0,1.84,5.66,1.98,6.08
				c0.14,0.42,0.37,0.85,1.04,1.07c0.71,0.23,2.55,0.83,2.85,0.93s0.57-0.05,0.66-0.33c0.07-0.23,1.91-5.89,2.07-6.38
				c0.36-1.09,0.13-1.8-0.79-2.47c-0.23-0.17-5.7-4.14-5.7-4.14c-0.08-0.06-0.2-0.04-0.26,0.03l-0.71,0.97
				c-0.06,0.09-0.04,0.21,0.05,0.27l5.3,3.85c0.68,0.5,0.68,0.76,0.5,1.34c-0.13,0.39-1.63,5-1.63,5.01c0,0.02-0.02,0.03-0.05,0.03
				c-0.03-0.01-0.89-0.29-1.35-0.44s-0.56-0.47-0.67-0.8s-2.41-7.43-2.5-7.7c-0.09-0.27-0.49-0.41-0.72-0.1
				c-0.23,0.32-5.27,7.26-5.27,7.26S150.15,18.41,150.25,18.44"/>
		</g>
		<g>
			<g>
				<path class="st1" d="M156.34,4.66h-0.41V2.28c0.14-0.02,0.4-0.04,0.6-0.04c0.63,0,0.97,0.28,0.97,0.78c0,0.35-0.2,0.6-0.47,0.71
					l0.72,0.94h-0.49l-0.64-0.85h-0.27L156.34,4.66L156.34,4.66z M156.34,3.47h0.2c0.33,0,0.53-0.14,0.53-0.45
					c0-0.27-0.19-0.43-0.55-0.43c-0.05,0-0.14,0-0.19,0.01v0.87H156.34z"/>
			</g>
			<path class="st1" d="M156.62,5.64c-1.19,0-2.15-0.96-2.15-2.15s0.96-2.15,2.15-2.15c1.19,0,2.15,0.96,2.15,2.15
				S157.8,5.64,156.62,5.64z M156.62,1.7c-0.99,0-1.79,0.8-1.79,1.79s0.8,1.79,1.79,1.79c0.99,0,1.79-0.8,1.79-1.79
				S157.61,1.7,156.62,1.7z"/>
		</g>
	</g>
</g>
<g>
	<path class="st3" d="M206.56,1.09l1.55-0.25v3.94h-0.82V1.74l-0.73,0.09V1.09z"/>
	<path class="st3" d="M210.32,4.77l0.61-0.99l0.28-0.43c-0.09,0.07-0.23,0.11-0.37,0.11c-0.65,0-1.27-0.44-1.27-1.28
		c0-0.76,0.56-1.35,1.44-1.35c0.87,0,1.39,0.59,1.39,1.35c0,0.52-0.28,1.01-0.47,1.35l-0.76,1.25H210.32z M211,1.5
		c-0.36,0-0.64,0.25-0.64,0.66s0.28,0.66,0.64,0.66c0.35,0,0.63-0.25,0.63-0.66S211.35,1.5,211,1.5z"/>
	<path class="st3" d="M216.18,3.19h0.58v0.65h-0.58v0.93h-0.79V3.84h-1.85V3.17l1.84-2.27h0.81V3.19z M214.33,3.19h1.06V1.83
		L214.33,3.19z"/>
	<path class="st3" d="M218.95,2.28c0.81,0.11,1.44,0.44,1.44,1.31c0,0.78-0.56,1.25-1.45,1.25c-0.37,0-0.75-0.11-0.97-0.27V3.83
		c0.24,0.17,0.56,0.33,0.93,0.33c0.44,0,0.72-0.16,0.72-0.55c0-0.54-0.68-0.68-1.41-0.74l0.14-1.97h1.96v0.73h-1.3L218.95,2.28z"/>
</g>
<path class="st3" d="M201.2,2.72h1.77v0.7h-1.77V2.72z"/>
<g>
	<path class="st3" d="M185.11,4.05v0.72h-2.65V4.17c0.89-0.76,1.67-1.42,1.67-2.05c0-0.36-0.22-0.53-0.58-0.53
		c-0.37,0-0.75,0.23-1,0.46V1.25c0.29-0.26,0.71-0.42,1.22-0.42c0.69,0,1.24,0.39,1.24,1.16c0,0.76-0.65,1.46-1.48,2.06H185.11z"/>
	<path class="st3" d="M187.94,0.83c0.93,0,1.52,0.83,1.52,2.01c0,1.17-0.6,2-1.52,2s-1.53-0.83-1.53-2
		C186.41,1.66,187.01,0.83,187.94,0.83z M187.94,4.14c0.42,0,0.7-0.46,0.7-1.3c0-0.86-0.28-1.31-0.7-1.31c-0.43,0-0.7,0.46-0.7,1.31
		C187.23,3.68,187.51,4.14,187.94,4.14z"/>
	<path class="st3" d="M193.3,4.05v0.72h-2.65V4.17c0.89-0.76,1.67-1.42,1.67-2.05c0-0.36-0.22-0.53-0.58-0.53
		c-0.37,0-0.75,0.23-1,0.46V1.25c0.29-0.26,0.71-0.42,1.22-0.42c0.69,0,1.24,0.39,1.24,1.16c0,0.76-0.65,1.46-1.48,2.06H193.3z"/>
	<path class="st3" d="M196.12,0.83c0.93,0,1.52,0.83,1.52,2.01c0,1.17-0.6,2-1.52,2s-1.53-0.83-1.53-2
		C194.59,1.66,195.2,0.83,196.12,0.83z M196.12,4.14c0.42,0,0.7-0.46,0.7-1.3c0-0.86-0.28-1.31-0.7-1.31c-0.43,0-0.7,0.46-0.7,1.31
		C195.42,3.68,195.69,4.14,196.12,4.14z"/>
</g>
<path class="st3" d="M182.59,6.3v6.47h14c0,0-11.37,9.48-14,26.6l8.36,0c2.61-16.31,12.64-24.67,15.13-26.65l0.62-6.42H182.59z"/>
<g>
	<path class="st4" d="M220.24,21.02v-8.29h-14.16l-0.41,6.52c1.27-1.12,3.72-1.78,5.61-1.78C215.06,17.46,218.18,18.69,220.24,21.02
		z"/>
	<path class="st4" d="M214.85,39.38h5.39v-3.74C218.93,37.28,217.12,38.59,214.85,39.38z"/>
	<g>
		<path class="st4" d="M204.23,39.13c-0.02-0.01-0.04-0.02-0.06-0.03c-0.42-0.18-0.83-0.37-1.22-0.58c-0.01,0-0.02-0.01-0.02-0.01
			c-0.2-0.11-0.39-0.22-0.58-0.34c0,0,0,0,0,0c-0.38-0.24-0.75-0.49-1.1-0.76c0,0,0,0-0.01,0c-2.52-1.94-4.07-4.68-4.29-7.46
			l7.44-1.53c0,0,0,0,0,0l0,0c0.15,2.47,1.97,4.79,5.05,4.94c0.1,0,0.2,0.01,0.3,0.01c2.7,0,4.94-1.78,4.94-4.79
			c0-3.21-2.34-4.79-4.9-4.89c-0.08,0-0.16,0-0.25,0c-2.24,0-3.82,1.12-4.64,2.14c0,0,0,0,0,0c0,0,0,0,0,0
			c-0.12-0.04-5.19-1.61-7.38-2.32c-0.33,0.5-4.54,6.93-5.87,15.87l13.22,0C204.65,39.3,204.44,39.22,204.23,39.13z"/>
	</g>
</g>
<g>
	<path class="st3" d="M186.52,46.07h-2.51c-0.26,0-0.52-0.04-0.76-0.11c-0.25-0.07-0.46-0.18-0.65-0.33
		c-0.19-0.15-0.34-0.34-0.45-0.57c-0.11-0.23-0.17-0.51-0.17-0.83c0-0.25,0.05-0.48,0.14-0.7c0.09-0.22,0.22-0.4,0.4-0.56
		c0.18-0.16,0.4-0.29,0.66-0.38c0.26-0.09,0.56-0.14,0.9-0.14c0.09,0,0.21,0.01,0.36,0.03c0.15,0.02,0.3,0.04,0.46,0.07
		c0.16,0.03,0.31,0.06,0.46,0.1c0.15,0.04,0.28,0.08,0.38,0.12v2.33h0.79V46.07z M183.24,41.81c-0.18,0-0.32-0.06-0.45-0.18
		c-0.12-0.12-0.18-0.27-0.18-0.44c0-0.18,0.06-0.33,0.18-0.45c0.12-0.12,0.27-0.18,0.45-0.18c0.17,0,0.32,0.06,0.44,0.18
		c0.13,0.12,0.19,0.27,0.19,0.45c0,0.17-0.06,0.31-0.19,0.44C183.55,41.75,183.4,41.81,183.24,41.81z M184.67,43.46
		c-0.05-0.01-0.13-0.03-0.23-0.05c-0.1-0.02-0.23-0.03-0.37-0.03c-0.37,0-0.64,0.08-0.82,0.24c-0.18,0.16-0.26,0.36-0.26,0.61
		c0,0.27,0.09,0.49,0.27,0.64s0.43,0.23,0.75,0.23h0.67V43.46z M184.81,41.81c-0.18,0-0.32-0.06-0.45-0.18
		c-0.12-0.12-0.18-0.27-0.18-0.44c0-0.18,0.06-0.33,0.18-0.45c0.12-0.12,0.27-0.18,0.45-0.18c0.17,0,0.32,0.06,0.44,0.18
		c0.13,0.12,0.19,0.27,0.19,0.45c0,0.17-0.06,0.31-0.19,0.44C185.13,41.75,184.98,41.81,184.81,41.81z"/>
	<path class="st3" d="M188.21,46.07h-1.85V45.1h1.85V46.07z"/>
	<path class="st3" d="M189.9,46.07h-1.85V45.1h1.85V46.07z"/>
	<path class="st3" d="M191.59,46.07h-1.85V45.1h1.85V46.07z"/>
	<path class="st3" d="M193.28,46.07h-1.85V45.1h1.85V46.07z"/>
	<path class="st3" d="M194.98,46.07h-1.85V45.1h1.85V46.07z"/>
	<path class="st3" d="M196.67,46.07h-1.85V45.1h1.85V46.07z"/>
	<path class="st3" d="M198.36,46.07h-1.85V45.1h1.85V46.07z"/>
	<path class="st3" d="M200.05,46.07h-1.85V45.1h1.85V46.07z"/>
	<path class="st3" d="M201.75,46.07h-1.85V45.1h1.85V46.07z"/>
	<path class="st3" d="M203.44,46.07h-1.85V45.1h1.85V46.07z"/>
	<path class="st3" d="M205.13,46.07h-1.85V45.1h1.85V46.07z"/>
	<path class="st3" d="M206.82,46.07h-1.85V45.1h1.85V46.07z"/>
	<path class="st3" d="M209.8,46.07c-0.29,0-0.53-0.03-0.75-0.09s-0.4-0.13-0.58-0.21c-0.12,0.1-0.27,0.17-0.46,0.23
		c-0.19,0.05-0.39,0.08-0.62,0.08h-0.74V45.1h0.69c0.4,0,0.6-0.21,0.6-0.62v-2.02h1.05v2.09c0,0.09-0.01,0.17-0.03,0.24
		c-0.02,0.06-0.03,0.12-0.05,0.17c0.09,0.05,0.2,0.08,0.33,0.11c0.13,0.03,0.27,0.04,0.41,0.04h0.65v0.97H209.8z M208.45,41.8
		c-0.18,0-0.32-0.06-0.45-0.18c-0.12-0.12-0.18-0.27-0.18-0.44c0-0.18,0.06-0.33,0.18-0.45c0.12-0.12,0.27-0.18,0.45-0.18
		c0.17,0,0.32,0.06,0.44,0.18c0.13,0.12,0.19,0.27,0.19,0.45c0,0.17-0.06,0.31-0.19,0.44C208.77,41.74,208.62,41.8,208.45,41.8z"/>
	<path class="st3" d="M212.01,46.07h-1.85V45.1h1.85V46.07z"/>
	<path class="st3" d="M213.71,46.07h-1.85V45.1h1.85V46.07z"/>
	<path class="st3" d="M213.55,46.07V45.1h0.34c0.18,0,0.32-0.03,0.45-0.08c0.12-0.06,0.18-0.17,0.18-0.35v-2.2h1.05v2.2
		c0,0.13-0.01,0.24-0.03,0.35c0.09,0.04,0.2,0.07,0.32,0.1c0.12,0.02,0.24,0.03,0.36,0.03c0.4,0,0.6-0.21,0.6-0.62v-2.06h1.06v2.13
		c0,0.09-0.01,0.17-0.03,0.24c-0.02,0.06-0.03,0.12-0.05,0.17c0.09,0.05,0.2,0.08,0.33,0.11c0.13,0.03,0.27,0.04,0.41,0.04
		c0.4,0,0.6-0.21,0.6-0.62v-2.06h1.06v2.11c0,0.29-0.04,0.52-0.11,0.72c-0.07,0.19-0.17,0.35-0.3,0.46
		c-0.13,0.12-0.29,0.2-0.48,0.25c-0.19,0.05-0.4,0.07-0.63,0.07c-0.29,0-0.53-0.03-0.75-0.09s-0.4-0.13-0.58-0.21
		c-0.12,0.1-0.27,0.17-0.46,0.23c-0.19,0.05-0.39,0.08-0.62,0.08c-0.45,0-0.9-0.07-1.36-0.2c-0.13,0.07-0.29,0.12-0.46,0.15
		c-0.17,0.03-0.36,0.05-0.57,0.05H213.55z"/>
</g>
</svg>
