<svg xmlns="http://www.w3.org/2000/svg" width="15" height="10" viewBox="0 0 15 10">
    <path fill="#8A8A8A" fill-rule="nonzero" d="M14.415.858C13.874.248 12.875 0 10.965 0h-6.93C2.082 0 1.065.265.525.914 0 1.547 0 2.479 0 3.77v2.46C0 8.73.624 10 4.035 10h6.93c1.656 0 2.573-.22 3.167-.758C14.74 8.691 15 7.79 15 6.23V3.77c0-1.361-.04-2.3-.585-2.912zM9.63 5.34L6.483 6.898a.505.505 0 0 1-.475-.014.454.454 0 0 1-.233-.393V3.385c0-.16.088-.308.233-.391a.507.507 0 0 1 .474-.015l3.147 1.548c.16.078.26.235.26.406.001.17-.1.328-.259.407z"/>
</svg>
