<svg xmlns="http://www.w3.org/2000/svg" width="13" height="13" viewBox="0 0 13 13">
    <g fill="#8A8A8A" fill-rule="nonzero">
        <path d="M9.36 0H3.568A3.572 3.572 0 0 0 0 3.568V9.36c0 1.967 1.6 3.567 3.568 3.567H9.36c1.968 0 3.568-1.6 3.568-3.567V3.568C12.928 1.6 11.328 0 9.36 0zm2.421 9.36a2.423 2.423 0 0 1-2.42 2.421H3.568a2.423 2.423 0 0 1-2.42-2.42V3.568a2.423 2.423 0 0 1 2.42-2.42H9.36a2.423 2.423 0 0 1 2.421 2.42V9.36z"/>
        <path d="M6.464 3.133a3.335 3.335 0 0 0-3.331 3.331 3.335 3.335 0 0 0 3.331 3.331 3.335 3.335 0 0 0 3.331-3.33 3.335 3.335 0 0 0-3.33-3.332zm0 5.515A2.187 2.187 0 0 1 4.28 6.464c0-1.204.98-2.184 2.184-2.184 1.205 0 2.184.98 2.184 2.184 0 1.205-.98 2.184-2.184 2.184zM9.935 2.16a.844.844 0 0 0-.841.842c0 .22.09.438.247.594a.848.848 0 0 0 .594.247.85.85 0 0 0 .595-.247.845.845 0 0 0-.595-1.436z"/>
    </g>
</svg>
