<svg xmlns="http://www.w3.org/2000/svg" width="12" height="11" viewBox="0 0 12 11">
    <path fill="#8A8A8A" fill-rule="nonzero" d="M11.728 1.27a4.246 4.246 0 0 1-.58.236c.234-.297.413-.646.522-1.028a.233.233 0 0 0-.064-.236.177.177 0 0 0-.22-.017c-.42.28-.873.48-1.35.598C9.559.298 8.907 0 8.235 0c-1.42 0-2.576 1.294-2.576 2.884 0 .125.007.25.02.373-1.762-.173-3.4-1.143-4.526-2.689A.185.185 0 0 0 .987.49a.193.193 0 0 0-.152.107c-.228.438-.35.94-.35 1.45 0 .695.223 1.354.614 1.87a2.074 2.074 0 0 1-.345-.173.176.176 0 0 0-.19.002.222.222 0 0 0-.097.183v.038c0 1.038.498 1.972 1.26 2.48a2 2 0 0 1-.195-.031.182.182 0 0 0-.182.069.236.236 0 0 0-.04.21c.283.986 1.01 1.712 1.888 1.933a4.205 4.205 0 0 1-2.982.743c-.089-.012-.174.047-.205.142a.23.23 0 0 0 .078.255C1.213 10.574 2.512 11 3.846 11c2.622 0 4.263-1.385 5.178-2.546 1.14-1.449 1.794-3.366 1.794-5.26l-.003-.24a5.4 5.4 0 0 0 1.152-1.366.237.237 0 0 0-.012-.26.18.18 0 0 0-.227-.059z"/>
</svg>
