<svg xmlns="http://www.w3.org/2000/svg" width="6" height="12" viewBox="0 0 6 12">
    <path fill="#8A8A8A" fill-rule="nonzero" d="M5.774.002L4.334 0c-1.616 0-2.66 1.16-2.66 2.953v1.362H.225c-.125 0-.226.11-.226.245v1.973c0 .135.101.244.226.244h1.447v4.978c0 .136.102.245.227.245h1.887c.125 0 .227-.11.227-.245V6.777h1.692c.125 0 .226-.11.226-.244V4.56a.256.256 0 0 0-.066-.173.218.218 0 0 0-.16-.072H4.014V3.16c0-.555.122-.837.79-.837h.97c.125 0 .226-.11.226-.245V.247c0-.135-.101-.244-.226-.245z"/>
</svg>
