<?xml version="1.0" encoding="utf-8"?>
<!-- Generator: Adobe Illustrator 24.1.1, SVG Export Plug-In . SVG Version: 6.00 Build 0)  -->
<svg version="1.1" id="Layer_1" xmlns="http://www.w3.org/2000/svg" xmlns:xlink="http://www.w3.org/1999/xlink" x="0px" y="0px"
	 viewBox="0 0 187.18 31.2" style="enable-background:new 0 0 187.18 31.2;" xml:space="preserve">
<style type="text/css">
	.st0{fill:#ED1B2F;}
</style>
<g>
	<g>
		<g>
			<g>
				<path class="st0" d="M34.68,1.52C31.71,0.56,28.01,0,24,0C20,0,16.3,0.56,13.33,1.52C5.43,4.06,0,9.33,0,15.43
					C0,24,10.75,30.96,24,30.96c13.25,0,24-6.95,24-15.53C48,9.33,42.57,4.06,34.68,1.52z M24,24.28c-1.98,0-3.59-3.89-3.69-8.78
					c1.19,0.11,2.42,0.16,3.69,0.16c1.26,0,2.5-0.06,3.69-0.16C27.6,20.39,25.98,24.28,24,24.28z M20.56,11.68
					C21.1,8.25,22.44,5.82,24,5.82c1.56,0,2.9,2.43,3.44,5.86c-1.1,0.1-2.25,0.15-3.44,0.15C22.81,11.83,21.66,11.78,20.56,11.68z
					 M29.54,11.42c-0.8-5.38-2.98-9.24-5.54-9.24c-2.56,0-4.74,3.86-5.54,9.24c-4.88-0.76-8.28-2.49-8.28-4.51
					c0-2.72,6.19-4.92,13.82-4.92c7.63,0,13.82,2.2,13.82,4.92C37.83,8.93,34.42,10.66,29.54,11.42z M3.5,14.86
					c0-2.63,1.01-5.09,2.78-7.21C6.26,7.8,6.25,7.94,6.25,8.09c0,3.31,4.97,6.12,11.89,7.15c-0.01,0.25-0.01,0.5-0.01,0.75
					c0,6.15,1.71,11.36,4.06,13.15C11.72,28.51,3.5,22.36,3.5,14.86z M25.81,29.15c2.36-1.8,4.06-7,4.06-13.15
					c0-0.25,0-0.5-0.01-0.75c6.92-1.03,11.89-3.84,11.89-7.15c0-0.15-0.01-0.3-0.03-0.44c1.76,2.12,2.78,4.58,2.78,7.21
					C44.5,22.36,36.28,28.51,25.81,29.15z"/>
			</g>
		</g>
	</g>
	<g>
		<polygon class="st0" points="73.6,4.43 54.6,4.43 54.6,8.63 61.61,8.63 61.61,26.54 66.59,26.54 66.59,8.63 73.6,8.63 		"/>
		<path class="st0" d="M86.44,3.76c-6.47,0-11.72,5.25-11.72,11.72c0,6.47,5.25,11.72,11.72,11.72c6.47,0,11.72-5.25,11.72-11.72
			C98.16,9.01,92.91,3.76,86.44,3.76z M92.18,19.03c-0.76,1.94-2.49,3.39-4.59,3.76c-0.37,0.07-0.76,0.1-1.15,0.1
			c-0.39,0-0.78-0.04-1.15-0.1c-2.1-0.37-3.83-1.82-4.59-3.76c-0.43-1.1-0.67-2.3-0.67-3.55c0-1.25,0.24-2.45,0.67-3.55
			c0.76-1.94,2.49-3.39,4.59-3.76c0.37-0.07,0.76-0.1,1.15-0.1c0.39,0,0.78,0.04,1.15,0.1c2.1,0.37,3.83,1.82,4.59,3.76
			c0.43,1.1,0.67,2.3,0.67,3.55C92.85,16.74,92.62,17.94,92.18,19.03z"/>
		<g>
			<polygon class="st0" points="98.24,4.43 104.1,4.43 109.57,13.94 115.05,4.43 120.9,4.43 112.06,18.36 112.06,26.54 
				107.09,26.54 107.09,18.36 			"/>
		</g>
		<path class="st0" d="M121,15.48c0-6.47,5.25-11.72,11.72-11.72c6.47,0,11.72,5.25,11.72,11.72c0,6.47-5.25,11.72-11.72,11.72
			C126.25,27.21,121,21.96,121,15.48z M132.72,22.9c0.39,0,0.78-0.04,1.15-0.1c2.1-0.37,3.83-1.82,4.59-3.76
			c0.43-1.1,0.67-2.3,0.67-3.55c0-1.25-0.24-2.45-0.67-3.55c-0.76-1.94-2.49-3.39-4.59-3.76c-0.37-0.07-0.76-0.1-1.15-0.1
			c-0.39,0-0.78,0.04-1.15,0.1c-2.1,0.37-3.83,1.82-4.59,3.76c-0.43,1.1-0.67,2.3-0.67,3.55c0,1.25,0.24,2.45,0.67,3.55
			c0.76,1.94,2.49,3.39,4.59,3.76C131.94,22.86,132.33,22.9,132.72,22.9z"/>
		<path class="st0" d="M179.83,21.66l-9.42,0l0,0l-1.81,4.87h-5.53l8.96-22.12h6.19l8.96,22.12h-5.53L179.83,21.66L179.83,21.66z
			 M178.38,17.79l-3.26-8.74l-3.26,8.74H178.38z"/>
		<polygon class="st0" points="164.53,4.43 145.53,4.43 145.53,8.63 152.54,8.63 152.54,26.54 157.52,26.54 157.52,8.63 
			164.53,8.63 		"/>
	</g>
</g>
</svg>
